<mxfile host="app.diagrams.net" modified="2024-01-09T13:08:05.410Z" agent="Mozilla/5.0 (Macintosh; Intel Mac OS X 10_15_7) AppleWebKit/537.36 (KHTML, like Gecko) Chrome/120.0.0.0 Safari/537.36" version="21.6.5" etag="aH0p-j47ue-hMfZ2QrPh" type="github">
  <diagram name="第 1 页" id="Y8Yxwzec4FZXNFFxlcfV">
    <mxGraphModel>
      <root>
        <mxCell id="0" />
        <mxCell id="1" parent="0" />
      </root>
    </mxGraphModel>
  </diagram>
</mxfile>
